<svg xmlns="http://www.w3.org/2000/svg" width="668" height="668" fill="none"><g clip-path="url(#a)"><path fill="#F7AE00" d="M516.213 209.629a156.597 156.597 0 0 0-25.469-2.086c-.684 0-1.373.012-2.053.025a224.75 224.75 0 0 1 16.739.842c3.655.319 7.244.73 10.783 1.219Zm122.182 330.367v-94.909c-.158 36.789-1.124 94.909-1.124 94.909h1.124Zm0-193.271c0-1.854-.054-3.704-.133-5.55.054 2.75.095 5.509.133 8.284v-2.734Zm-500.522 19.2c0-7.393-.141-14.868-.216-22.22a121.4 121.4 0 0 0-.037 3.02v193.271h.253V365.925Z"/><path fill="#106BBF" d="M161.819 270.513c-15.043 21.664-23.556 46.97-24.162 73.192.075 7.352.216 14.831.216 22.22v174.071h99.385V338.238c0-7.476 1.634-14.558 4.505-20.967-13.674-15.13-38.221-34.648-79.944-46.758Zm476.443 70.662c-1.473-34.893-16.819-68.077-43.117-92.869-21.61-20.369-49.228-33.773-78.932-38.676-3.539-.49-7.128-.901-10.782-1.22a226.978 226.978 0 0 0-16.74-.842c-37.641.493-73.655 14.519-100.688 39.211-15.786-14.42-34.691-25.061-55.14-31.636-15.848 19.013-33.421 44.472-42.308 71.819 27.477 1.021 49.448 23.551 49.448 51.276v201.763h94.428V338.238c0-28.372 22.996-51.371 51.372-51.371 28.377 0 51.373 22.999 51.373 51.371v201.763h100.09s.967-58.121 1.125-94.91v-95.632c-.034-2.775-.075-5.534-.129-8.284Z"/><path fill="#106BBF" d="M184.371 245.311h-82.948c27.385 1.858 50.509 6.501 70.087 12.707 19.362 6.135 35.189 13.806 48.066 21.9.062.041.129.079.187.116a172.492 172.492 0 0 1 8.907 6.007c.141.1.274.203.415.307a161.941 161.941 0 0 1 7.559 5.816c.099.083.215.17.315.249a152.17 152.17 0 0 1 6.459 5.634c.374.34.735.684 1.1 1.024a148.523 148.523 0 0 1 5.48 5.385c15.404 16.067 20.623 29.065 20.623 29.065-1.846-15.055-.108-30.106 3.921-44.647.962-3.476 2.078-6.915 3.289-10.325.179-.498.361-.996.544-1.49 2.452-6.72 5.339-13.291 8.542-19.664.245-.481.49-.958.738-1.435 3.236-6.322 6.763-12.445 10.459-18.307.299-.473.598-.942.9-1.411a281.763 281.763 0 0 1 5.539-8.351c.016-.02.033-.05.05-.07a288.518 288.518 0 0 1 6.837-9.446 326.72 326.72 0 0 1 5.725-7.414c19.635-24.613 37.927-40.402 37.927-40.402l-109.475 74.752h-61.246Z"/><path fill="#106BBF" d="m250.069 224.303 23.763-16.229c-.216.012-.431.05-.647.066l116.573-81.489H190.212L26.971 232.89h210.813l12.285-8.587Z"/></g><defs><clipPath id="a"><path fill="#fff" d="M27 124h614v419H27z"/></clipPath></defs></svg>